<svg version="1.1" id="Layer_1" xmlns="http://www.w3.org/2000/svg" xmlns:xlink="http://www.w3.org/1999/xlink" x="0px" y="0px"
	 width="100%" viewBox="0 0 786 250" enable-background="new 0 0 786 250" xml:space="preserve">
<path fill="#000000" opacity="1.000000" stroke="none" 
	d="
M520.000000,251.000000 
	C346.708344,251.000000 173.916687,251.000000 1.062521,251.000000 
	C1.062521,167.728485 1.062521,84.456909 1.062521,1.092666 
	C263.000000,1.092666 525.000000,1.092666 786.967651,1.092666 
	C786.967651,84.416672 786.967651,167.708344 786.967651,251.000000 
	C698.123535,251.000000 609.311768,251.000000 520.000000,251.000000 
M274.981354,172.065262 
	C274.993591,158.869904 275.031067,145.674500 275.009430,132.479202 
	C274.994385,123.318306 274.898010,114.157539 274.972382,104.122643 
	C274.973145,102.624268 275.058868,101.120277 274.960327,99.628471 
	C274.485535,92.440582 268.853607,86.648857 261.773102,86.005844 
	C252.768784,85.188110 246.149200,89.315536 243.927307,97.543175 
	C243.675140,98.053276 243.422989,98.563377 243.031891,99.989334 
	C243.083832,133.633469 243.135773,167.277603 243.046768,201.678879 
	C244.587906,204.838364 245.521423,208.557953 247.803909,211.034103 
	C251.848526,215.421906 260.341980,216.179276 265.526703,213.792267 
	C272.362579,210.645096 275.849548,205.679169 274.971161,197.058395 
	C274.926697,189.036194 274.882202,181.014008 274.981354,172.065262 
M270.881439,37.454361 
	C269.710693,36.922493 268.527069,36.417110 267.371185,35.854702 
	C254.105087,29.400072 239.991379,38.820179 241.012238,53.751442 
	C242.729324,63.333435 248.277023,68.841805 258.886780,69.972282 
	C269.898315,68.872879 276.654755,62.120705 276.973633,52.149670 
	C277.418640,46.528187 275.713776,41.771709 270.881439,37.454361 
M380.015350,50.984264 
	C380.015350,50.984264 380.077942,50.971043 379.808624,50.320324 
	C370.763611,40.417011 358.793579,36.244938 346.109467,35.236729 
	C332.899109,34.186691 319.540527,34.967968 306.246948,35.009312 
	C295.785736,35.041847 288.526978,45.743839 292.020142,56.771061 
	C293.811005,63.014198 298.574554,66.902580 304.783386,66.940094 
	C316.109558,67.008545 327.446808,66.660416 338.760193,67.048019 
	C351.494812,67.484329 361.461395,73.040504 366.926819,84.969772 
	C370.368683,92.482185 369.159912,100.285484 366.765076,108.578354 
	C359.219818,121.166794 347.968628,126.034431 333.562622,125.106331 
	C325.947906,124.615746 318.274017,124.892418 310.630768,125.033463 
	C301.085449,125.209625 296.132782,129.841309 296.085815,138.757751 
	C295.979034,159.035751 295.972504,179.314758 296.046234,199.592941 
	C296.071838,206.626953 300.986816,212.955704 307.293488,214.614960 
	C313.701996,216.300964 320.649567,214.291626 323.009796,210.009003 
	C323.009796,210.009003 323.047607,210.083252 323.719177,209.969116 
	C325.599640,207.271942 328.257538,204.841995 326.915588,200.350677 
	C326.962646,199.914993 327.009705,199.479324 327.730927,198.506653 
	C327.976044,187.427979 328.229156,176.349472 328.462128,165.270538 
	C328.548706,161.155945 331.627472,157.490524 335.738831,157.005875 
	C339.982727,156.505585 344.280212,156.433105 348.511963,155.860840 
	C368.572418,153.147995 383.591583,143.083176 393.615997,124.602196 
	C402.691071,105.748505 403.265076,86.838028 393.956635,67.153778 
	C390.733215,60.525452 386.212708,55.010094 380.015350,50.984264 
M424.004700,180.832504 
	C430.459259,194.002533 440.235382,203.644119 454.332825,209.708282 
	C466.744110,214.822891 479.512543,216.435364 492.799774,213.997925 
	C510.439270,210.762070 524.266724,201.930283 534.514832,187.103119 
	C544.439331,172.744217 546.131165,156.801132 544.924561,139.527008 
	C544.991455,139.344742 545.058289,139.162491 545.799744,138.625229 
	C545.807556,137.366348 545.815308,136.107483 545.935364,133.947723 
	C545.951721,129.117615 546.034607,124.286674 545.973328,119.457565 
	C545.669983,95.550064 545.487976,71.639175 544.908569,47.738075 
	C544.721191,40.005852 537.275391,33.530899 529.439331,34.160755 
	C521.045349,34.835453 514.295715,39.695190 514.130676,48.800163 
	C513.777527,68.276268 514.136536,87.765282 514.044617,108.142548 
	C514.044922,113.127350 514.144714,118.114525 514.025391,123.096466 
	C513.748596,134.653336 514.039734,146.277679 512.848267,157.744568 
	C511.490967,170.808350 496.576385,183.630325 483.359589,183.001083 
	C478.953918,182.791321 474.559540,182.344772 469.776154,181.358780 
	C467.465820,180.227524 464.916199,179.417313 462.888885,177.906326 
	C456.133240,172.871292 449.437714,167.141052 449.172058,158.138672 
	C448.403259,132.087357 448.290649,106.015732 448.044983,79.950912 
	C448.009583,76.196747 448.977173,72.431534 448.923096,68.679474 
	C448.825684,61.921944 448.599396,55.136688 447.826355,48.432274 
	C447.492493,45.536930 446.269592,42.301491 444.408417,40.102703 
	C436.975616,31.321688 425.127441,33.228664 418.031311,44.792404 
	C417.393951,47.559246 416.756622,50.326088 415.983704,54.003338 
	C416.035919,66.313835 416.088165,78.624336 416.025787,91.874229 
	C416.358826,113.455925 416.422333,135.046860 417.162354,156.614594 
	C417.443878,164.819656 419.284576,172.969894 424.004700,180.832504 
z"/>
<path fill="#E07D40" opacity="1.000000" stroke="none" 
	d="
M470.160004,182.006470 
	C474.559540,182.344772 478.953918,182.791321 483.359589,183.001083 
	C496.576385,183.630325 511.490967,170.808350 512.848267,157.744568 
	C514.039734,146.277679 513.748596,134.653336 514.025391,123.096466 
	C514.144714,118.114525 514.044922,113.127350 514.475830,107.638573 
	C515.616089,107.074043 516.325134,107.013489 517.372803,107.065628 
	C528.926025,111.028244 535.909546,119.544167 541.947388,129.503387 
	C543.256836,131.532745 544.539978,133.190674 545.823120,134.848602 
	C545.815308,136.107483 545.807556,137.366348 545.409302,138.574265 
	C544.872559,138.145081 544.726318,137.766846 544.580078,137.388626 
	C544.426697,137.433136 544.273315,137.477646 544.119995,137.522171 
	C544.338684,138.378174 544.557373,139.234161 544.776062,140.090164 
	C546.131165,156.801132 544.439331,172.744217 534.514832,187.103119 
	C524.266724,201.930283 510.439270,210.762070 492.799774,213.997925 
	C479.512543,216.435364 466.744110,214.822891 454.308838,209.144287 
	C453.535431,207.072708 452.786011,205.565109 452.042175,203.626556 
	C453.550537,198.450928 454.490753,193.410751 456.768890,189.073288 
	C458.118073,186.504532 461.579956,185.045410 464.489441,183.084274 
	C466.644653,182.722961 468.402344,182.364716 470.160004,182.006470 
z"/>
<path fill="#13699C" opacity="1.000000" stroke="none" 
	d="
M327.056763,199.043640 
	C327.009705,199.479324 326.962646,199.914993 326.652771,200.940720 
	C325.275848,204.381592 324.161743,207.232422 323.047607,210.083252 
	C323.047607,210.083252 323.009796,210.009003 322.638306,210.023987 
	C321.447205,210.157074 320.580841,210.142746 319.814911,210.412994 
	C306.169434,215.227722 298.988770,210.128784 299.000671,195.631073 
	C299.015564,177.494156 298.999847,159.357208 299.010651,141.220276 
	C299.015564,132.987625 304.835541,127.113007 313.215851,127.041527 
	C323.531586,126.953537 333.849426,127.084908 344.164673,126.970398 
	C355.397797,126.845695 365.466919,119.204720 369.344055,108.195999 
	C370.089020,107.946388 370.517883,107.813919 371.366302,107.752090 
	C382.566742,108.722351 389.584534,114.079193 390.988892,122.945671 
	C387.024628,128.694687 384.184357,135.325577 379.209473,139.251511 
	C367.532410,148.466431 354.616913,155.379684 338.681091,154.146484 
	C330.666229,153.526230 325.679077,159.398453 325.723724,167.845947 
	C325.769409,176.489990 325.846924,185.134827 326.041504,193.776352 
	C326.081177,195.538834 326.703186,197.288223 327.056763,199.043640 
z"/>
<path fill="#43A5D5" opacity="1.000000" stroke="none" 
	d="
M391.142792,122.598320 
	C389.584534,114.079193 382.566742,108.722351 371.393066,107.355667 
	C372.595520,97.887169 372.352051,89.497154 367.546143,80.965355 
	C361.925873,70.987816 353.499939,66.153038 343.023010,65.209167 
	C332.470398,64.258476 321.765442,64.938835 311.127960,65.011429 
	C303.754150,65.061737 297.437469,63.275551 293.952148,55.550014 
	C292.831665,42.932858 297.111664,37.761013 311.421417,37.964584 
	C320.901123,38.099438 330.390076,38.203640 339.864471,37.943497 
	C352.928955,37.584774 364.554962,41.473282 375.209290,48.818085 
	C376.644714,49.807640 378.446045,50.266464 380.077942,50.971043 
	C380.077942,50.971043 380.015350,50.984264 380.036224,51.321285 
	C380.303497,52.432224 380.352905,53.364510 380.827576,53.954926 
	C384.510895,58.536686 388.251556,63.073540 392.061005,67.550659 
	C392.382904,67.928986 393.335449,67.770760 393.994995,67.861801 
	C403.265076,86.838028 402.691071,105.748505 393.107513,124.590729 
	C392.113617,123.918953 391.628204,123.258636 391.142792,122.598320 
z"/>
<path fill="#EDBD71" opacity="1.000000" stroke="none" 
	d="
M517.034180,106.952927 
	C516.325134,107.013489 515.616089,107.074043 514.555420,107.191803 
	C514.136536,87.765282 513.777527,68.276268 514.130676,48.800163 
	C514.295715,39.695190 521.045349,34.835453 529.439331,34.160755 
	C537.275391,33.530899 544.721191,40.005852 544.908569,47.738075 
	C545.487976,71.639175 545.669983,95.550064 545.973328,119.457565 
	C546.034607,124.286674 545.951721,129.117615 545.879272,134.398163 
	C544.539978,133.190674 543.256836,131.532745 542.169556,129.136093 
	C542.546570,127.761185 542.885010,127.125328 542.886353,126.488777 
	C542.937805,101.690041 543.216187,76.886703 542.778503,52.096077 
	C542.684387,46.767376 540.152893,41.235218 534.202637,39.094994 
	C525.111145,35.824932 517.061157,41.704590 517.011780,51.680943 
	C516.920715,70.104454 517.016357,88.528877 517.034180,106.952927 
z"/>
<path fill="#226689" opacity="1.000000" stroke="none" 
	d="
M369.027954,108.313141 
	C365.466919,119.204720 355.397797,126.845695 344.164673,126.970398 
	C333.849426,127.084908 323.531586,126.953537 313.215851,127.041527 
	C304.835541,127.113007 299.015564,132.987625 299.010651,141.220276 
	C298.999847,159.357208 299.015564,177.494156 299.000671,195.631073 
	C298.988770,210.128784 306.169434,215.227722 319.814911,210.412994 
	C320.580841,210.142746 321.447205,210.157074 322.675049,210.043640 
	C320.649567,214.291626 313.701996,216.300964 307.293488,214.614960 
	C300.986816,212.955704 296.071838,206.626953 296.046234,199.592941 
	C295.972504,179.314758 295.979034,159.035751 296.085815,138.757751 
	C296.132782,129.841309 301.085449,125.209625 310.630768,125.033463 
	C318.274017,124.892418 325.947906,124.615746 333.562622,125.106331 
	C347.968628,126.034431 359.219818,121.166794 367.251709,108.343628 
	C368.168182,108.176987 368.598083,108.245064 369.027954,108.313141 
z"/>
<path fill="#DAA063" opacity="1.000000" stroke="none" 
	d="
M469.968079,181.682617 
	C468.402344,182.364716 466.644653,182.722961 464.284515,182.798660 
	C460.097717,179.112656 455.996521,176.100723 453.051422,172.212997 
	C448.742004,166.524292 445.804535,160.256088 445.894073,152.551743 
	C446.203766,125.907310 446.086914,99.256721 445.965057,72.609245 
	C445.930145,64.970634 445.433228,57.328091 444.954224,49.699528 
	C444.594269,43.966984 439.150269,37.899376 433.996002,37.109348 
	C429.184235,36.371822 423.343811,39.920437 420.768250,45.079239 
	C419.761353,44.770126 418.977631,44.392643 418.193909,44.015160 
	C425.127441,33.228664 436.975616,31.321688 444.408417,40.102703 
	C446.269592,42.301491 447.492493,45.536930 447.826355,48.432274 
	C448.599396,55.136688 448.825684,61.921944 448.923096,68.679474 
	C448.977173,72.431534 448.009583,76.196747 448.044983,79.950912 
	C448.290649,106.015732 448.403259,132.087357 449.172058,158.138672 
	C449.437714,167.141052 456.133240,172.871292 462.888885,177.906326 
	C464.916199,179.417313 467.465820,180.227524 469.968079,181.682617 
z"/>
<path fill="#E2995E" opacity="1.000000" stroke="none" 
	d="
M418.112610,44.403778 
	C418.977631,44.392643 419.761353,44.770126 420.682373,45.480183 
	C420.215668,51.073841 419.119904,56.332081 419.089417,61.596489 
	C418.921875,90.507767 418.811401,119.422791 419.128357,148.331619 
	C419.240814,158.587631 420.578796,168.837524 425.689301,178.114685 
	C424.914612,178.850510 424.429626,179.477783 423.944672,180.105057 
	C419.284576,172.969894 417.443878,164.819656 417.162354,156.614594 
	C416.422333,135.046860 416.358826,113.455925 416.271759,91.046043 
	C416.686279,81.440392 416.959717,72.663071 416.972626,63.885376 
	C416.977936,60.288322 416.420624,56.690437 416.119263,53.092926 
	C416.756622,50.326088 417.393951,47.559246 418.112610,44.403778 
z"/>
<path fill="#5FA6C5" opacity="1.000000" stroke="none" 
	d="
M379.943298,50.645683 
	C378.446045,50.266464 376.644714,49.807640 375.209290,48.818085 
	C364.554962,41.473282 352.928955,37.584774 339.864471,37.943497 
	C330.390076,38.203640 320.901123,38.099438 311.421417,37.964584 
	C297.111664,37.761013 292.831665,42.932858 293.616058,55.550491 
	C292.827911,56.011127 292.378662,56.018997 291.929382,56.026871 
	C288.526978,45.743839 295.785736,35.041847 306.246948,35.009312 
	C319.540527,34.967968 332.899109,34.186691 346.109467,35.236729 
	C358.793579,36.244938 370.763611,40.417011 379.943298,50.645683 
z"/>
<path fill="#226689" opacity="1.000000" stroke="none" 
	d="
M390.988892,122.945671 
	C391.628204,123.258636 392.113617,123.918953 392.814850,124.792862 
	C383.591583,143.083176 368.572418,153.147995 348.511963,155.860840 
	C344.280212,156.433105 339.982727,156.505585 335.738831,157.005875 
	C331.627472,157.490524 328.548706,161.155945 328.462128,165.270538 
	C328.229156,176.349472 327.976044,187.427979 327.393860,198.775146 
	C326.703186,197.288223 326.081177,195.538834 326.041504,193.776352 
	C325.846924,185.134827 325.769409,176.489990 325.723724,167.845947 
	C325.679077,159.398453 330.666229,153.526230 338.681091,154.146484 
	C354.616913,155.379684 367.532410,148.466431 379.209473,139.251511 
	C384.184357,135.325577 387.024628,128.694687 390.988892,122.945671 
z"/>
<path fill="#58A2C2" opacity="1.000000" stroke="none" 
	d="
M291.974762,56.398964 
	C292.378662,56.018997 292.827911,56.011127 293.613281,56.002777 
	C297.437469,63.275551 303.754150,65.061737 311.127960,65.011429 
	C321.765442,64.938835 332.470398,64.258476 343.023010,65.209167 
	C353.499939,66.153038 361.925873,70.987816 367.546143,80.965355 
	C372.352051,89.497154 372.595520,97.887169 370.973450,107.285034 
	C370.517883,107.813919 370.089020,107.946388 369.344055,108.195999 
	C368.598083,108.245064 368.168182,108.176987 367.419312,108.040787 
	C369.159912,100.285484 370.368683,92.482185 366.926819,84.969772 
	C361.461395,73.040504 351.494812,67.484329 338.760193,67.048019 
	C327.446808,66.660416 316.109558,67.008545 304.783386,66.940094 
	C298.574554,66.902580 293.811005,63.014198 291.974762,56.398964 
z"/>
<path fill="#2AB3DD" opacity="1.000000" stroke="none" 
	d="
M276.819550,53.001228 
	C276.654755,62.120705 269.898315,68.872879 258.634583,69.518066 
	C258.512146,63.330284 258.641876,57.596710 258.907013,51.840775 
	C259.042389,51.818417 259.309387,51.868591 259.817627,51.907021 
	C265.823792,52.297379 271.321655,52.649303 276.819550,53.001228 
z"/>
<path fill="#50D0E5" opacity="1.000000" stroke="none" 
	d="
M258.771637,51.863136 
	C258.641876,57.596710 258.512146,63.330284 258.237152,69.438080 
	C248.277023,68.841805 242.729324,63.333435 241.252090,53.515221 
	C242.320602,53.121960 243.149277,52.964920 244.438522,52.850372 
	C249.523285,52.549618 254.147461,52.206379 258.771637,51.863136 
z"/>
<path fill="#509BB8" opacity="1.000000" stroke="none" 
	d="
M274.834259,197.984390 
	C275.849548,205.679169 272.362579,210.645096 265.526703,213.792267 
	C260.341980,216.179276 251.848526,215.421906 247.803909,211.034103 
	C245.521423,208.557953 244.587906,204.838364 243.290070,200.935486 
	C243.672684,199.209885 243.933075,198.227737 243.933762,197.245407 
	C243.955536,165.975372 243.962616,134.705322 243.919388,103.435333 
	C243.917389,101.981041 243.431412,100.527420 243.170837,99.073486 
	C243.422989,98.563377 243.675140,98.053276 244.348312,97.272285 
	C245.173767,97.010284 245.578232,97.019173 245.833130,97.412422 
	C245.469116,99.602509 245.070526,101.407959 245.067871,103.213997 
	C245.028427,130.023438 245.036514,156.832962 245.046738,183.642456 
	C245.048492,188.260056 244.375015,193.041794 245.356781,197.448456 
	C246.315063,201.749680 247.907867,207.203827 251.116409,209.470871 
	C261.444702,216.768494 272.213287,210.772354 273.384247,198.014038 
	C274.060913,197.999908 274.447601,197.992157 274.834259,197.984390 
z"/>
<path fill="#147EAB" opacity="1.000000" stroke="none" 
	d="
M276.896606,52.575447 
	C271.321655,52.649303 265.823792,52.297379 259.924011,51.551369 
	C262.097992,47.167007 264.673889,43.176727 267.541290,38.974098 
	C268.995056,38.540264 270.157318,38.318787 271.319580,38.097309 
	C275.713776,41.771709 277.418640,46.528187 276.896606,52.575447 
z"/>
<path fill="#DAA063" opacity="1.000000" stroke="none" 
	d="
M423.974670,180.468781 
	C424.429626,179.477783 424.914612,178.850510 425.710754,178.482605 
	C426.880524,180.477203 427.521484,182.370895 428.644531,183.913620 
	C430.779724,186.846649 432.806427,190.053009 435.569641,192.292740 
	C440.800629,196.532654 446.520111,200.169876 452.036621,204.057495 
	C452.786011,205.565109 453.535431,207.072708 454.137329,208.819977 
	C440.235382,203.644119 430.459259,194.002533 423.974670,180.468781 
z"/>
<path fill="#58A2C2" opacity="1.000000" stroke="none" 
	d="
M245.982681,97.028061 
	C245.578232,97.019173 245.173767,97.010284 244.466003,96.993820 
	C246.149200,89.315536 252.768784,85.188110 261.773102,86.005844 
	C268.853607,86.648857 274.485535,92.440582 274.960327,99.628471 
	C275.058868,101.120277 274.973145,102.624268 274.600281,104.563065 
	C273.821716,105.007385 273.415192,105.011284 272.997559,104.609947 
	C271.987274,92.805855 263.900604,86.233368 254.545715,89.886925 
	C251.262497,91.169174 248.812927,94.585953 245.982681,97.028061 
z"/>
<path fill="#82E3EE" opacity="1.000000" stroke="none" 
	d="
M271.100525,37.775833 
	C270.157318,38.318787 268.995056,38.540264 267.180420,38.790810 
	C254.395782,34.178135 245.460373,39.720840 243.977936,52.807884 
	C243.149277,52.964920 242.320602,53.121960 241.326538,53.126495 
	C239.991379,38.820179 254.105087,29.400072 267.371185,35.854702 
	C268.527069,36.417110 269.710693,36.922493 271.100525,37.775833 
z"/>
<path fill="#43A5D5" opacity="1.000000" stroke="none" 
	d="
M243.101364,99.531410 
	C243.431412,100.527420 243.917389,101.981041 243.919388,103.435333 
	C243.962616,134.705322 243.955536,165.975372 243.933762,197.245407 
	C243.933075,198.227737 243.672684,199.209885 243.360550,200.556915 
	C243.135773,167.277603 243.083832,133.633469 243.101364,99.531410 
z"/>
<path fill="#5FA6C5" opacity="1.000000" stroke="none" 
	d="
M273.008698,105.015182 
	C273.415192,105.011284 273.821716,105.007385 274.533081,105.000099 
	C274.898010,114.157539 274.994385,123.318306 275.009430,132.479202 
	C275.031067,145.674500 274.993591,158.869904 274.686218,172.528564 
	C274.391052,172.991867 273.944366,172.991562 273.945374,172.523590 
	C273.947021,161.726669 273.947662,151.397705 273.961243,140.599548 
	C273.662903,135.761230 273.351624,131.392120 273.031189,126.573509 
	C273.017578,119.087730 273.013123,112.051453 273.008698,105.015182 
z"/>
<path fill="#58A2C2" opacity="1.000000" stroke="none" 
	d="
M273.944366,172.991562 
	C273.944366,172.991562 274.391052,172.991867 274.614380,172.991837 
	C274.882202,181.014008 274.926697,189.036194 274.902710,197.521393 
	C274.447601,197.992157 274.060913,197.999908 273.360840,197.543610 
	C273.346405,189.050232 273.645386,181.020889 273.944366,172.991562 
z"/>
<path fill="#5FA6C5" opacity="1.000000" stroke="none" 
	d="
M393.975830,67.507790 
	C393.335449,67.770760 392.382904,67.928986 392.061005,67.550659 
	C388.251556,63.073540 384.510895,58.536686 380.827576,53.954926 
	C380.352905,53.364510 380.303497,52.432224 380.043060,51.290051 
	C386.212708,55.010094 390.733215,60.525452 393.975830,67.507790 
z"/>
<path fill="#F29946" opacity="1.000000" stroke="none" 
	d="
M416.051453,53.548134 
	C416.420624,56.690437 416.977936,60.288322 416.972626,63.885376 
	C416.959717,72.663071 416.686279,81.440392 416.329041,90.576340 
	C416.088165,78.624336 416.035919,66.313835 416.051453,53.548134 
z"/>
<path fill="#226689" opacity="1.000000" stroke="none" 
	d="
M323.383392,210.026184 
	C324.161743,207.232422 325.275848,204.381592 326.596313,201.264572 
	C328.257538,204.841995 325.599640,207.271942 323.383392,210.026184 
z"/>
<path fill="#EDBD71" opacity="1.000000" stroke="none" 
	d="
M544.850342,139.808594 
	C544.557373,139.234161 544.338684,138.378174 544.119995,137.522171 
	C544.273315,137.477646 544.426697,137.433136 544.580078,137.388626 
	C544.726318,137.766846 544.872559,138.145081 545.071899,138.751770 
	C545.058289,139.162491 544.991455,139.344742 544.850342,139.808594 
z"/>
<path fill="#F29946" opacity="1.000000" stroke="none" 
	d="
M452.042175,203.626556 
	C446.520111,200.169876 440.800629,196.532654 435.569641,192.292740 
	C432.806427,190.053009 430.779724,186.846649 428.644531,183.913620 
	C427.521484,182.370895 426.880524,180.477203 426.000488,178.374054 
	C420.578796,168.837524 419.240814,158.587631 419.128357,148.331619 
	C418.811401,119.422791 418.921875,90.507767 419.089417,61.596489 
	C419.119904,56.332081 420.215668,51.073841 420.905579,45.411804 
	C423.343811,39.920437 429.184235,36.371822 433.996002,37.109348 
	C439.150269,37.899376 444.594269,43.966984 444.954224,49.699528 
	C445.433228,57.328091 445.930145,64.970634 445.965057,72.609245 
	C446.086914,99.256721 446.203766,125.907310 445.894073,152.551743 
	C445.804535,160.256088 448.742004,166.524292 453.051422,172.212997 
	C455.996521,176.100723 460.097717,179.112656 463.886963,182.801727 
	C461.579956,185.045410 458.118073,186.504532 456.768890,189.073288 
	C454.490753,193.410751 453.550537,198.450928 452.042175,203.626556 
z"/>
<path fill="#FBBE58" opacity="1.000000" stroke="none" 
	d="
M517.372803,107.065628 
	C517.016357,88.528877 516.920715,70.104454 517.011780,51.680943 
	C517.061157,41.704590 525.111145,35.824932 534.202637,39.094994 
	C540.152893,41.235218 542.684387,46.767376 542.778503,52.096077 
	C543.216187,76.886703 542.937805,101.690041 542.886353,126.488777 
	C542.885010,127.125328 542.546570,127.761185 542.143188,128.764679 
	C535.909546,119.544167 528.926025,111.028244 517.372803,107.065628 
z"/>
<path fill="#65EDFB" opacity="1.000000" stroke="none" 
	d="
M244.438522,52.850368 
	C245.460373,39.720840 254.395782,34.178135 266.888916,39.003166 
	C264.673889,43.176727 262.097992,47.167007 259.415741,51.512939 
	C259.309387,51.868591 259.042389,51.818417 258.907013,51.840778 
	C254.147461,52.206379 249.523285,52.549618 244.438522,52.850368 
z"/>
<path fill="#41A5D6" opacity="1.000000" stroke="none" 
	d="
M273.945374,172.523590 
	C273.645386,181.020889 273.346405,189.050232 273.070831,197.549973 
	C272.213287,210.772354 261.444702,216.768494 251.116409,209.470871 
	C247.907867,207.203827 246.315063,201.749680 245.356781,197.448456 
	C244.375015,193.041794 245.048492,188.260056 245.046738,183.642456 
	C245.036514,156.832962 245.028427,130.023438 245.067871,103.213997 
	C245.070526,101.407959 245.469116,99.602509 245.833130,97.412430 
	C248.812927,94.585953 251.262497,91.169174 254.545715,89.886925 
	C263.900604,86.233368 271.987274,92.805855 272.997559,104.609947 
	C273.013123,112.051453 273.017578,119.087730 273.020630,127.033203 
	C273.328918,132.317856 273.638611,136.693298 273.948303,141.068741 
	C273.947662,151.397705 273.947021,161.726669 273.945374,172.523590 
z"/>
<path fill="#58A2C2" opacity="1.000000" stroke="none" 
	d="
M273.961243,140.599548 
	C273.638611,136.693298 273.328918,132.317856 273.029785,127.482712 
	C273.351624,131.392120 273.662903,135.761230 273.961243,140.599548 
z"/>
</svg>