<svg version="1.1" id="Layer_1" xmlns="http://www.w3.org/2000/svg" xmlns:xlink="http://www.w3.org/1999/xlink" x="0px" y="0px"
	 width="100%" viewBox="0 0 512 512" enable-background="new 0 0 512 512" xml:space="preserve">
<path fill="#000000" opacity="1.000000" stroke="none" 
	d="
M244.000000,513.000000 
	C162.686386,513.000000 81.872772,513.000000 1.029580,513.000000 
	C1.029580,342.394684 1.029580,171.789383 1.029580,1.092035 
	C171.563629,1.092035 342.127350,1.092035 512.845520,1.092035 
	C512.845520,171.666565 512.845520,342.333252 512.845520,513.000000 
	C423.456024,513.000000 333.977997,513.000000 244.000000,513.000000 
M121.863022,200.971985 
	C132.835419,199.899536 139.652328,193.159973 139.973984,183.156601 
	C140.413879,177.552460 138.738220,172.798065 133.900604,168.503204 
	C132.733215,167.964615 131.553955,167.450165 130.400238,166.883713 
	C117.111229,160.359085 102.951073,169.887070 104.013489,184.788223 
	C105.737328,194.343216 111.284943,199.829559 121.863022,200.971985 
M243.010117,181.989532 
	C243.010117,181.989532 243.073639,181.967087 242.805099,181.317459 
	C233.760864,171.412247 221.788132,167.246979 209.105637,166.237579 
	C195.897232,165.186325 182.540115,166.046097 169.248474,165.979950 
	C162.677078,165.947235 158.307861,169.620590 155.739822,174.950348 
	C152.766647,181.120819 152.745895,187.524185 158.214584,193.644394 
	C161.719696,195.080582 165.173157,197.582047 168.739517,197.754990 
	C179.837173,198.293106 190.992538,197.585693 202.097534,198.042267 
	C214.758728,198.562820 224.634903,204.188980 230.005096,216.131805 
	C233.391327,223.662445 232.034592,231.406433 229.772171,239.644638 
	C222.221893,252.283737 210.898224,257.049408 196.505310,256.136414 
	C189.037827,255.662750 181.506241,255.789795 174.021896,256.094482 
	C164.276184,256.491211 159.167999,259.748505 159.107407,270.962067 
	C159.001175,290.620483 158.757080,310.286011 159.164368,329.936249 
	C159.384293,340.547974 165.038422,346.104828 175.139938,345.961121 
	C184.919922,345.821960 190.747162,340.100525 190.969940,330.290192 
	C191.233551,318.682037 191.731964,307.078705 191.931961,295.469910 
	C192.015579,290.616516 194.997696,288.682343 198.990448,287.996246 
	C203.039581,287.300446 207.213608,287.368469 211.298721,286.838409 
	C231.463821,284.221832 246.503647,274.111115 256.600708,255.613297 
	C262.097443,244.995178 263.983246,233.859177 263.159515,221.837372 
	C262.543365,212.845261 260.383636,204.676193 255.983475,196.226028 
	C251.666626,191.459412 247.349777,186.692780 243.010117,181.989532 
M107.332764,226.192719 
	C106.946854,227.483688 106.560944,228.774658 106.031677,230.982910 
	C106.085144,264.630981 106.138611,298.279083 106.052025,332.683655 
	C108.000839,336.113983 109.231705,340.386627 112.054001,342.792114 
	C117.273575,347.240814 123.502754,347.138062 129.826797,344.085297 
	C137.318054,340.469025 138.613617,334.277649 137.978119,326.038788 
	C137.991287,305.235779 138.011963,284.432800 138.014526,263.629791 
	C138.015839,252.994843 138.042160,242.359375 137.948227,231.725113 
	C137.885239,224.591537 134.979553,221.548386 128.907166,218.772873 
	C125.682640,217.299042 122.947937,218.261505 120.011528,218.029465 
	C114.639397,217.604919 109.830032,220.811462 107.332764,226.192719 
M408.973785,241.095352 
	C408.921936,234.716064 408.870117,228.336761 408.967834,221.038025 
	C408.912903,208.028748 408.857971,195.019485 408.681152,181.235001 
	C408.455688,180.642456 408.072052,180.061295 408.028564,179.455673 
	C407.385132,170.495926 402.387787,166.004364 392.991699,165.994781 
	C383.852539,165.985458 377.181946,171.235550 377.101715,179.395905 
	C376.909271,198.978073 377.138580,218.564407 377.043579,239.056000 
	C377.042725,242.872665 377.117493,246.691116 377.027161,250.505676 
	C376.726288,263.208801 377.229858,276.010468 375.774475,288.583313 
	C374.443390,300.082275 366.834045,308.195770 355.904816,311.794983 
	C350.030304,313.729584 343.391022,313.342102 336.923492,313.494904 
	C336.614288,313.386993 336.305054,313.279114 335.290192,313.019745 
	C334.568604,313.006805 333.847046,312.993866 332.751282,312.336914 
	C323.485443,309.860687 311.946228,297.132660 311.913086,286.640137 
	C311.833466,261.427155 311.280945,236.216003 311.041901,211.002945 
	C311.007874,207.418030 312.036743,203.813217 311.910736,200.240997 
	C311.656586,193.036865 310.716339,185.856476 310.477051,178.652405 
	C310.093964,167.117661 296.299408,163.199448 288.139038,167.354614 
	C281.383881,170.794250 280.001312,177.337830 278.983887,184.974594 
	C279.036407,197.299622 279.088898,209.624664 279.026276,222.887100 
	C279.002777,232.698715 278.868103,242.511597 278.980621,252.321640 
	C279.172516,269.046051 277.712463,285.922028 283.031525,302.227051 
	C288.776215,319.836884 299.534637,332.974670 317.345367,340.719421 
	C329.761383,345.824036 342.534363,347.444916 355.820343,344.994812 
	C373.260956,341.778625 387.054169,333.136353 397.226532,318.474640 
	C406.598114,304.967194 409.286499,290.043976 407.925507,273.167328 
	C408.233521,262.785828 408.541565,252.404312 408.973785,241.095352 
z"/>
<path fill="#156999" opacity="1.000000" stroke="none" 
	d="
M256.002747,256.000641 
	C246.503647,274.111115 231.463821,284.221832 211.298721,286.838409 
	C207.213608,287.368469 203.039581,287.300446 198.990448,287.996246 
	C194.997696,288.682343 192.015579,290.616516 191.931961,295.469910 
	C191.731964,307.078705 191.233551,318.682037 190.969940,330.290192 
	C190.747162,340.100525 184.919922,345.821960 175.139938,345.961121 
	C165.038422,346.104828 159.384293,340.547974 159.164368,329.936249 
	C158.757080,310.286011 159.001175,290.620483 159.107407,270.962067 
	C159.167999,259.748505 164.276184,256.491211 174.021896,256.094482 
	C181.506241,255.789795 189.037827,255.662750 196.505310,256.136414 
	C210.898224,257.049408 222.221893,252.283737 230.399811,239.345871 
	C239.316299,238.205734 246.500443,240.405548 251.572998,247.282349 
	C253.481567,249.869797 254.550842,253.076340 256.002747,256.000641 
z"/>
<path fill="#E07D40" opacity="1.000000" stroke="none" 
	d="
M337.096832,314.002411 
	C343.391022,313.342102 350.030304,313.729584 355.904816,311.794983 
	C366.834045,308.195770 374.443390,300.082275 375.774475,288.583313 
	C377.229858,276.010468 376.726288,263.208801 377.027161,250.505676 
	C377.117493,246.691116 377.042725,242.872665 377.471558,238.564240 
	C378.604187,238.031494 379.308868,237.990494 380.360596,238.042343 
	C389.048889,241.257935 395.612823,246.591522 400.641296,253.927521 
	C402.188721,256.185028 404.066589,258.215973 405.792358,260.741241 
	C406.203125,263.398956 406.614655,265.666107 407.001160,268.333740 
	C407.248993,270.503204 407.521881,272.272125 407.794739,274.041077 
	C409.286499,290.043976 406.598114,304.967194 397.226532,318.474640 
	C387.054169,333.136353 373.260956,341.778625 355.820343,344.994812 
	C342.534363,347.444916 329.761383,345.824036 317.177155,340.042053 
	C316.350250,337.915924 315.691559,336.467224 315.033905,334.590088 
	C316.311920,329.833008 316.928131,325.134094 319.079102,321.295105 
	C320.740173,318.330505 324.325806,316.444275 327.458679,314.072998 
	C329.616241,313.705231 331.370850,313.343048 333.125458,312.980896 
	C333.847046,312.993866 334.568604,313.006805 335.796692,313.270386 
	C336.546875,313.715912 336.811401,313.876373 337.096832,314.002411 
z"/>
<path fill="#44A5D5" opacity="1.000000" stroke="none" 
	d="
M256.301727,255.806976 
	C254.550842,253.076340 253.481567,249.869797 251.572998,247.282349 
	C246.500443,240.405548 239.316299,238.205734 230.583893,239.056152 
	C232.034592,231.406433 233.391327,223.662445 230.005096,216.131805 
	C224.634903,204.188980 214.758728,198.562820 202.097534,198.042267 
	C190.992538,197.585693 179.837173,198.293106 168.739517,197.754990 
	C165.173157,197.582047 161.719696,195.080582 158.300171,193.075302 
	C158.158875,190.895721 158.290833,189.123123 157.648209,187.700424 
	C152.583618,176.488007 162.333710,168.418686 171.803268,168.873535 
	C182.396927,169.382370 193.042343,169.265045 203.649490,168.926834 
	C216.736679,168.509583 228.086288,172.933197 238.657883,180.142700 
	C239.945633,181.020874 241.592957,181.371811 243.073639,181.967087 
	C243.073639,181.967087 243.010117,181.989532 243.019745,182.330246 
	C246.895493,187.557129 250.752136,192.450974 254.671829,197.293762 
	C254.794205,197.444946 255.568924,197.068146 256.039520,196.937485 
	C260.383636,204.676193 262.543365,212.845261 263.159515,221.837372 
	C263.983246,233.859177 262.097443,244.995178 256.301727,255.806976 
z"/>
<path fill="#DF9D60" opacity="1.000000" stroke="none" 
	d="
M332.938354,312.658905 
	C331.370850,313.343048 329.616241,313.705231 327.277161,313.771301 
	C326.029755,313.001007 325.387360,312.494629 324.700806,312.057465 
	C316.159302,306.618805 310.768768,298.579834 309.261993,288.951691 
	C307.783875,279.506653 308.050873,269.739746 308.093292,260.116516 
	C308.162140,244.495758 308.865631,228.877716 308.927734,213.257050 
	C308.967987,203.134140 308.198944,193.010345 308.074524,182.883484 
	C308.006012,177.306931 306.247528,173.098328 301.287720,170.073822 
	C295.702667,166.668045 287.002258,168.614227 285.085022,174.838623 
	C283.310364,180.600052 282.202759,186.794495 282.132050,192.813873 
	C281.825043,218.951813 281.625122,245.103683 282.191711,271.233032 
	C282.422424,281.873810 283.950470,292.637695 286.271301,303.036926 
	C288.354034,312.369324 295.079315,319.669983 301.354828,326.567535 
	C304.821899,330.378265 310.404144,332.264648 315.032898,335.018494 
	C315.691559,336.467224 316.350250,337.915924 317.007019,339.718597 
	C299.534637,332.974670 288.776215,319.836884 283.031525,302.227051 
	C277.712463,285.922028 279.172516,269.046051 278.980621,252.321640 
	C278.868103,242.511597 279.002777,232.698715 279.313477,222.081146 
	C279.741119,211.465927 279.950623,201.656830 279.975769,191.847260 
	C279.982452,189.251114 279.421356,186.653488 279.121002,184.056549 
	C280.001312,177.337830 281.383881,170.794250 288.139038,167.354614 
	C296.299408,163.199448 310.093964,167.117661 310.477051,178.652405 
	C310.716339,185.856476 311.656586,193.036865 311.910736,200.240997 
	C312.036743,203.813217 311.007874,207.418030 311.041901,211.002945 
	C311.280945,236.216003 311.833466,261.427155 311.913086,286.640137 
	C311.946228,297.132660 323.485443,309.860687 332.938354,312.658905 
z"/>
<path fill="#ECC175" opacity="1.000000" stroke="none" 
	d="
M380.013550,237.949493 
	C379.308868,237.990494 378.604187,238.031494 377.548615,238.110779 
	C377.138580,218.564407 376.909271,198.978073 377.101715,179.395905 
	C377.181946,171.235550 383.852539,165.985458 392.991699,165.994781 
	C402.387787,166.004364 407.385132,170.495926 408.028564,179.455673 
	C408.072052,180.061295 408.455688,180.642456 408.525146,181.972443 
	C408.261017,192.183746 408.072357,201.657715 408.085938,211.131378 
	C408.091095,214.740417 408.560486,218.348801 408.818268,221.957474 
	C408.870117,228.336761 408.921936,234.716064 408.697205,241.906708 
	C408.294342,246.790634 408.247437,250.867661 408.020111,254.934601 
	C407.777618,259.272430 407.364685,263.600769 407.026184,267.933258 
	C406.614655,265.666107 406.203125,263.398956 405.853485,260.238831 
	C405.950470,234.355286 406.008392,209.364746 406.003235,184.374207 
	C406.002075,178.740799 401.609558,171.216614 397.893860,169.962448 
	C385.531189,165.789597 379.580444,174.998093 379.514496,184.219223 
	C379.386383,202.127213 379.815369,220.039169 380.013550,237.949493 
z"/>
<path fill="#65EDFB" opacity="1.000000" stroke="none" 
	d="
M104.170303,184.020828 
	C102.951073,169.887070 117.111229,160.359085 130.400238,166.883713 
	C131.553955,167.450165 132.733215,167.964615 133.721863,168.835709 
	C132.535583,169.528534 131.083603,169.584396 130.593765,170.299408 
	C127.758125,174.438446 125.149330,178.732910 122.311317,182.919174 
	C122.158867,182.863571 121.835686,182.893539 121.433655,182.951721 
	C115.411186,183.346878 109.790749,183.683853 104.170303,184.020828 
z"/>
<path fill="#519CBB" opacity="1.000000" stroke="none" 
	d="
M106.175034,230.065628 
	C106.560944,228.774658 106.946854,227.483688 107.682411,226.333282 
	C108.355888,226.987198 108.679718,227.500549 109.000031,228.481110 
	C108.993103,255.922638 109.028885,282.897034 108.955887,309.871155 
	C108.939735,315.841614 108.633904,321.816437 108.289482,327.779358 
	C107.928482,334.029205 113.093727,341.691162 118.674126,342.892395 
	C126.426460,344.561157 132.942184,341.270599 135.347443,333.893158 
	C136.242172,331.148804 135.847626,327.984131 136.250000,325.178101 
	C136.922165,325.884399 137.385300,326.423676 137.848450,326.962982 
	C138.613617,334.277649 137.318054,340.469025 129.826797,344.085297 
	C123.502754,347.138062 117.273575,347.240814 112.054001,342.792114 
	C109.231705,340.386627 108.000839,336.113983 106.335464,331.961029 
	C106.737106,330.420654 106.958221,329.602966 106.958649,328.785156 
	C106.974968,297.153473 106.980362,265.521790 106.936325,233.890167 
	C106.934547,232.614975 106.439995,231.340454 106.175034,230.065628 
z"/>
<path fill="#5FA6C5" opacity="1.000000" stroke="none" 
	d="
M242.939362,181.642273 
	C241.592957,181.371811 239.945633,181.020874 238.657883,180.142700 
	C228.086288,172.933197 216.736679,168.509583 203.649490,168.926834 
	C193.042343,169.265045 182.396927,169.382370 171.803268,168.873535 
	C162.333710,168.418686 152.583618,176.488007 157.648209,187.700424 
	C158.290833,189.123123 158.158875,190.895721 158.159439,192.749588 
	C152.745895,187.524185 152.766647,181.120819 155.739822,174.950348 
	C158.307861,169.620590 162.677078,165.947235 169.248474,165.979950 
	C182.540115,166.046097 195.897232,165.186325 209.105637,166.237579 
	C221.788132,167.246979 233.760864,171.412247 242.939362,181.642273 
z"/>
<path fill="#29B3DD" opacity="1.000000" stroke="none" 
	d="
M121.835686,182.893539 
	C121.835686,182.893539 122.158867,182.863571 122.822388,182.937073 
	C128.930313,183.344193 134.374710,183.677826 139.819107,184.011475 
	C139.652328,193.159973 132.835419,199.899536 121.628960,200.524582 
	C121.541824,194.349304 121.688759,188.621414 121.835686,182.893539 
z"/>
<path fill="#5FA6C5" opacity="1.000000" stroke="none" 
	d="
M109.003540,228.013901 
	C108.679718,227.500549 108.355888,226.987198 107.986496,226.165649 
	C109.830032,220.811462 114.639397,217.604919 120.011528,218.029465 
	C122.947937,218.261505 125.682640,217.299042 128.907166,218.772873 
	C134.979553,221.548386 137.885239,224.591537 137.948227,231.725113 
	C138.042160,242.359375 138.015839,252.994843 138.014526,263.629791 
	C138.011963,284.432800 137.991287,305.235779 137.913284,326.500885 
	C137.385300,326.423676 136.922165,325.884399 136.238708,324.714539 
	C136.329193,306.730286 136.639969,289.376556 136.962234,271.557892 
	C136.659302,266.738098 136.344879,262.383240 136.022156,257.557983 
	C136.006683,249.316132 136.032516,241.544434 135.981064,233.773239 
	C135.944778,228.291367 130.861526,221.360245 126.194183,220.288452 
	C118.001862,218.407196 112.306702,220.966599 109.003540,228.013901 
z"/>
<path fill="#50D0E5" opacity="1.000000" stroke="none" 
	d="
M121.433655,182.951721 
	C121.688759,188.621414 121.541824,194.349304 121.229683,200.445084 
	C111.284943,199.829559 105.737328,194.343216 104.091896,184.404526 
	C109.790749,183.683853 115.411186,183.346878 121.433655,182.951721 
z"/>
<path fill="#147EAB" opacity="1.000000" stroke="none" 
	d="
M139.896545,183.584045 
	C134.374710,183.677826 128.930313,183.344193 122.974838,182.992676 
	C125.149330,178.732910 127.758125,174.438446 130.593765,170.299408 
	C131.083603,169.584396 132.535583,169.528534 133.942795,169.152237 
	C138.738220,172.798065 140.413879,177.552460 139.896545,183.584045 
z"/>
<path fill="#44A5D5" opacity="1.000000" stroke="none" 
	d="
M106.103363,230.524261 
	C106.439995,231.340454 106.934547,232.614975 106.936325,233.890167 
	C106.980362,265.521790 106.974968,297.153473 106.958649,328.785156 
	C106.958221,329.602966 106.737106,330.420654 106.405495,331.582764 
	C106.138611,298.279083 106.085144,264.630981 106.103363,230.524261 
z"/>
<path fill="#5FA6C5" opacity="1.000000" stroke="none" 
	d="
M256.011505,196.581757 
	C255.568924,197.068146 254.794205,197.444946 254.671829,197.293762 
	C250.752136,192.450974 246.895493,187.557129 243.031158,182.298553 
	C247.349777,186.692780 251.666626,191.459412 256.011505,196.581757 
z"/>
<path fill="#FBBE58" opacity="1.000000" stroke="none" 
	d="
M408.893066,221.497742 
	C408.560486,218.348801 408.091095,214.740417 408.085938,211.131378 
	C408.072357,201.657715 408.261017,192.183746 408.586090,182.360046 
	C408.857971,195.019485 408.912903,208.028748 408.893066,221.497742 
z"/>
<path fill="#F29946" opacity="1.000000" stroke="none" 
	d="
M279.052429,184.515564 
	C279.421356,186.653488 279.982452,189.251114 279.975769,191.847260 
	C279.950623,201.656830 279.741119,211.465927 279.371033,221.612442 
	C279.088898,209.624664 279.036407,197.299622 279.052429,184.515564 
z"/>
<path fill="#DF9D60" opacity="1.000000" stroke="none" 
	d="
M407.001160,268.333740 
	C407.364685,263.600769 407.777618,259.272430 408.020111,254.934601 
	C408.247437,250.867661 408.294342,246.790634 408.635101,242.370422 
	C408.541565,252.404312 408.233521,262.785828 407.860107,273.604187 
	C407.521881,272.272125 407.248993,270.503204 407.001160,268.333740 
z"/>
<path fill="#DF9D60" opacity="1.000000" stroke="none" 
	d="
M337.010162,313.748657 
	C336.811401,313.876373 336.546875,313.715912 336.149536,313.346130 
	C336.305054,313.279114 336.614288,313.386993 337.010162,313.748657 
z"/>
<path fill="#F29946" opacity="1.000000" stroke="none" 
	d="
M315.033905,334.590118 
	C310.404144,332.264648 304.821899,330.378265 301.354828,326.567535 
	C295.079315,319.669983 288.354034,312.369324 286.271301,303.036926 
	C283.950470,292.637695 282.422424,281.873810 282.191711,271.233032 
	C281.625122,245.103683 281.825043,218.951813 282.132050,192.813873 
	C282.202759,186.794495 283.310364,180.600052 285.085022,174.838623 
	C287.002258,168.614227 295.702667,166.668045 301.287720,170.073822 
	C306.247528,173.098328 308.006012,177.306931 308.074524,182.883484 
	C308.198944,193.010345 308.967987,203.134140 308.927734,213.257050 
	C308.865631,228.877716 308.162140,244.495758 308.093292,260.116516 
	C308.050873,269.739746 307.783875,279.506653 309.261993,288.951691 
	C310.768768,298.579834 316.159302,306.618805 324.700806,312.057465 
	C325.387360,312.494629 326.029755,313.001007 326.874207,313.776917 
	C324.325806,316.444275 320.740173,318.330505 319.079102,321.295105 
	C316.928131,325.134094 316.311920,329.833008 315.033905,334.590118 
z"/>
<path fill="#FBBE58" opacity="1.000000" stroke="none" 
	d="
M380.360596,238.042343 
	C379.815369,220.039169 379.386383,202.127213 379.514496,184.219223 
	C379.580444,174.998093 385.531189,165.789597 397.893860,169.962448 
	C401.609558,171.216614 406.002075,178.740799 406.003235,184.374207 
	C406.008392,209.364746 405.950470,234.355286 405.854248,259.848267 
	C404.066589,258.215973 402.188721,256.185028 400.641296,253.927521 
	C395.612823,246.591522 389.048889,241.257935 380.360596,238.042343 
z"/>
<path fill="#41A5D6" opacity="1.000000" stroke="none" 
	d="
M109.000023,228.481110 
	C112.306702,220.966599 118.001862,218.407196 126.194183,220.288452 
	C130.861526,221.360245 135.944778,228.291367 135.981064,233.773239 
	C136.032516,241.544434 136.006683,249.316132 136.015198,258.017548 
	C136.327911,263.305939 136.639328,267.664368 136.950745,272.022827 
	C136.639969,289.376556 136.329193,306.730286 136.029709,324.547546 
	C135.847626,327.984131 136.242172,331.148804 135.347443,333.893158 
	C132.942184,341.270599 126.426460,344.561157 118.674126,342.892395 
	C113.093727,341.691162 107.928482,334.029205 108.289482,327.779358 
	C108.633904,321.816437 108.939735,315.841614 108.955887,309.871155 
	C109.028885,282.897034 108.993103,255.922638 109.000023,228.481110 
z"/>
<path fill="#519CBB" opacity="1.000000" stroke="none" 
	d="
M136.962234,271.557892 
	C136.639328,267.664368 136.327911,263.305939 136.023468,258.487915 
	C136.344879,262.383240 136.659302,266.738098 136.962234,271.557892 
z"/>
</svg>